<svg width="25" height="25" viewBox="0 0 25 25" fill="none" xmlns="http://www.w3.org/2000/svg">
<path d="M20.5833 3.33325H5.41667C4.22005 3.33325 3.25 4.3033 3.25 5.49992V20.6666C3.25 21.8632 4.22005 22.8333 5.41667 22.8333H20.5833C21.78 22.8333 22.75 21.8632 22.75 20.6666V5.49992C22.75 4.3033 21.78 3.33325 20.5833 3.33325Z" stroke="#204527" stroke-width="1.2" stroke-linecap="round" stroke-linejoin="round"/>
<path d="M17.333 1.16675V5.50008" stroke="#204527" stroke-width="1.2" stroke-linecap="round" stroke-linejoin="round"/>
<path d="M8.66699 1.16675V5.50008" stroke="#204527" stroke-width="1.2" stroke-linecap="round" stroke-linejoin="round"/>
<path d="M3.25 9.83325H22.75" stroke="#204527" stroke-width="1.2" stroke-linecap="round" stroke-linejoin="round"/>
<path d="M10.8662 13.2969V19H9.83105V14.5039L8.45996 14.957V14.1211L10.749 13.2969H10.8662ZM16.6318 18.1875V19H12.7803V18.3047L14.6279 16.3086C14.8206 16.0898 14.973 15.8997 15.085 15.7383C15.1969 15.5768 15.2764 15.431 15.3232 15.3008C15.3727 15.168 15.3975 15.0417 15.3975 14.9219C15.3975 14.7474 15.3662 14.5951 15.3037 14.4648C15.2412 14.332 15.1501 14.2292 15.0303 14.1562C14.9131 14.0833 14.7686 14.0469 14.5967 14.0469C14.4066 14.0469 14.2438 14.0911 14.1084 14.1797C13.9756 14.2656 13.874 14.3854 13.8037 14.5391C13.736 14.6927 13.7021 14.8685 13.7021 15.0664H12.667C12.667 14.7305 12.7451 14.4245 12.9014 14.1484C13.0576 13.8698 13.2816 13.6471 13.5732 13.4805C13.8649 13.3138 14.2113 13.2305 14.6123 13.2305C15.0029 13.2305 15.3337 13.2956 15.6045 13.4258C15.8753 13.5534 16.0811 13.7357 16.2217 13.9727C16.3623 14.2096 16.4326 14.4922 16.4326 14.8203C16.4326 15.0026 16.4027 15.1823 16.3428 15.3594C16.2829 15.5365 16.1982 15.7122 16.0889 15.8867C15.9821 16.0586 15.8545 16.2331 15.7061 16.4102C15.5576 16.5872 15.3923 16.7682 15.21 16.9531L14.1006 18.1875H16.6318Z" fill="#204527"/>
</svg>
