<svg width="24" height="22" viewBox="0 0 24 22" fill="none" xmlns="http://www.w3.org/2000/svg">
<g filter="url(#filter0_d_161_22)">
<path d="M21.3187 18.0273L15.232 11.9406C16.1766 10.7195 16.6875 9.22656 16.6875 7.65625C16.6875 5.77656 15.9539 4.01406 14.6273 2.68516C13.3008 1.35625 11.5336 0.625 9.65625 0.625C7.77891 0.625 6.01172 1.35859 4.68516 2.68516C3.35625 4.01172 2.625 5.77656 2.625 7.65625C2.625 9.53359 3.35859 11.3008 4.68516 12.6273C6.01172 13.9562 7.77656 14.6875 9.65625 14.6875C11.2266 14.6875 12.7172 14.1766 13.9383 13.2344L20.025 19.3187C20.0428 19.3366 20.064 19.3508 20.0874 19.3604C20.1107 19.3701 20.1357 19.3751 20.1609 19.3751C20.1862 19.3751 20.2112 19.3701 20.2345 19.3604C20.2578 19.3508 20.279 19.3366 20.2969 19.3187L21.3187 18.2992C21.3366 18.2814 21.3508 18.2602 21.3604 18.2369C21.3701 18.2135 21.3751 18.1885 21.3751 18.1633C21.3751 18.138 21.3701 18.113 21.3604 18.0897C21.3508 18.0664 21.3366 18.0452 21.3187 18.0273ZM13.3688 11.3688C12.375 12.3602 11.0578 12.9062 9.65625 12.9062C8.25469 12.9062 6.9375 12.3602 5.94375 11.3688C4.95234 10.375 4.40625 9.05781 4.40625 7.65625C4.40625 6.25469 4.95234 4.93516 5.94375 3.94375C6.9375 2.95234 8.25469 2.40625 9.65625 2.40625C11.0578 2.40625 12.3773 2.95 13.3688 3.94375C14.3602 4.9375 14.9062 6.25469 14.9062 7.65625C14.9062 9.05781 14.3602 10.3773 13.3688 11.3688Z" fill="#6A6A6A"/>
</g>
<defs>
<filter id="filter0_d_161_22" x="-1.375" y="0.625" width="26.75" height="26.75" filterUnits="userSpaceOnUse" color-interpolation-filters="sRGB">
<feFlood flood-opacity="0" result="BackgroundImageFix"/>
<feColorMatrix in="SourceAlpha" type="matrix" values="0 0 0 0 0 0 0 0 0 0 0 0 0 0 0 0 0 0 127 0" result="hardAlpha"/>
<feOffset dy="4"/>
<feGaussianBlur stdDeviation="2"/>
<feComposite in2="hardAlpha" operator="out"/>
<feColorMatrix type="matrix" values="0 0 0 0 0 0 0 0 0 0 0 0 0 0 0 0 0 0 0.25 0"/>
<feBlend mode="normal" in2="BackgroundImageFix" result="effect1_dropShadow_161_22"/>
<feBlend mode="normal" in="SourceGraphic" in2="effect1_dropShadow_161_22" result="shape"/>
</filter>
</defs>
</svg>
